<?xml version="1.0" encoding="UTF-8"?>
<svg id="Capa_2" data-name="Capa 2" xmlns="http://www.w3.org/2000/svg" viewBox="0 0 1000 500">
  <defs>
    <style>
      .cls-1 {
        fill: #4c6ce1;
      }

      .cls-2 {
        fill: #34354f;
      }

      .cls-3 {
        fill: #febb37;
      }

      .cls-4 {
        fill: #f96c54;
      }

      .cls-5 {
        fill: #a67bf4;
      }

      .cls-6 {
        fill: #486ae0;
      }

      .cls-7 {
        fill: #528aed;
      }

      .cls-8 {
        fill: #fb7a4b;
      }
    </style>
  </defs>
  <g>
    <path class="cls-1" d="M126.23,336.31c-10.7.53-19.82-7.98-19.78-18.74,0,0,0-133.37,0-133.37,0-10.35,8.39-18.73,18.73-18.73,10.7-.53,19.82,7.98,19.78,18.74,0,0,0,133.37,0,133.37,0,10.35-8.39,18.73-18.73,18.73Z"/>
    <path class="cls-7" d="M74.24,291.73c-10.7.54-19.82-7.98-19.78-18.74,0,0,0-56.11,0-56.11,0-10.35,8.39-18.73,18.73-18.73,10.7-.54,19.82,7.98,19.78,18.74,0,0,0,56.11,0,56.11,0,10.35-8.39,18.73-18.73,18.73Z"/>
    <path class="cls-3" d="M224.47,377.97c-10.7.53-19.82-7.98-19.78-18.74,0,0,0-162.61,0-162.61,0-10.35,8.39-18.73,18.73-18.73,10.7-.53,19.82,7.98,19.78,18.74,0,0,0,162.61,0,162.61,0,10.35-8.39,18.73-18.73,18.73Z"/>
    <path class="cls-8" d="M276.45,324.08c-10.7.53-19.82-7.98-19.78-18.74,0,0,0-164.58,0-164.58,0-10.35,8.39-18.73,18.73-18.73,10.7-.53,19.82,7.98,19.78,18.74,0,0,0,164.58,0,164.58,0,10.35-8.39,18.73-18.73,18.73Z"/>
    <path class="cls-4" d="M327.91,287.38c-10.64,0-19.26-8.62-19.26-19.26v-74.05c0-10.64,8.62-19.26,19.26-19.26,10.64,0,19.26,8.62,19.26,19.26v74.05c0,10.64-8.62,19.26-19.26,19.26Z"/>
    <path class="cls-5" d="M174.82,356.67c-9.06,0-16.4-7.34-16.4-16.4v-120.49c0-9.06,7.34-16.4,16.4-16.4,9.06,0,16.4,7.34,16.4,16.4v120.49c0,9.06-7.34,16.4-16.4,16.4Z"/>
  </g>
  <g>
    <g>
      <path class="cls-2" d="M417.28,276.08c-6.51,0-12.1-1.44-16.78-4.33-4.68-2.89-8.28-6.97-10.8-12.24-2.52-5.27-3.78-11.39-3.78-18.36s1.26-13.11,3.78-18.15c2.52-5.04,6.12-8.96,10.8-11.76,4.68-2.8,10.27-4.19,16.78-4.19,4.13,0,8.14.78,12.03,2.34,3.9,1.56,7.17,3.71,9.83,6.46l-3.3,6.33c-2.84-2.75-5.87-4.75-9.08-5.98-3.21-1.24-6.28-1.86-9.21-1.86-7.43,0-13.13,2.32-17.12,6.95-3.99,4.63-5.98,11.3-5.98,20.01s1.99,15.38,5.98,20.29c3.99,4.91,9.7,7.36,17.12,7.36,2.93,0,6-.62,9.21-1.86,3.21-1.24,6.23-3.23,9.08-5.98l3.3,6.33c-2.66,2.66-5.98,4.77-9.97,6.33-3.99,1.56-7.96,2.34-11.9,2.34Z"/>
      <path class="cls-2" d="M472.57,276.08c-6.24,0-11.03-1.92-14.37-5.78-3.35-3.85-5.02-9.3-5.02-16.37v-75.92h8.39v74.96c0,3.49.48,6.4,1.44,8.73s2.36,4.1,4.19,5.29c1.83,1.19,4.08,1.79,6.74,1.79,1.19,0,2.31-.07,3.37-.21,1.05-.14,2.04-.34,2.96-.62l-.28,7.29c-1.38.28-2.66.48-3.85.62-1.19.14-2.39.21-3.58.21Z"/>
      <path class="cls-2" d="M490.99,190.67v-10.59h11.28v10.59h-11.28ZM492.37,274.98v-66.7h8.39v66.7h-8.39Z"/>
      <path class="cls-2" d="M542.29,276.08c-6.24,0-11.03-1.92-14.37-5.78-3.35-3.85-5.02-9.3-5.02-16.37v-75.92h8.39v74.96c0,3.49.48,6.4,1.44,8.73.96,2.34,2.36,4.1,4.19,5.29,1.83,1.19,4.08,1.79,6.74,1.79,1.19,0,2.31-.07,3.37-.21,1.05-.14,2.04-.34,2.96-.62l-.27,7.29c-1.38.28-2.66.48-3.85.62-1.19.14-2.38.21-3.58.21Z"/>
      <path class="cls-2" d="M592.35,275.81c-7.79,0-13.85-2.2-18.16-6.6-4.31-4.4-6.46-10.59-6.46-18.57v-35.9h-13.2v-14.17h2.06c3.48,0,6.21-1.01,8.18-3.03,1.97-2.02,2.96-4.77,2.96-8.25v-5.78h15.54v17.05h16.92v14.17h-16.92v35.21c0,2.57.41,4.75,1.24,6.53.83,1.79,2.15,3.16,3.99,4.13,1.83.96,4.22,1.44,7.15,1.44.73,0,1.56-.04,2.48-.14.92-.09,1.79-.18,2.61-.27v13.34c-1.28.18-2.71.37-4.26.55-1.56.18-2.94.28-4.13.28Z"/>
      <path class="cls-2" d="M642.41,276.63c-5.59,0-10.52-1.26-14.78-3.78-4.26-2.52-7.54-6.05-9.83-10.59-2.29-4.54-3.44-9.79-3.44-15.75v-45.94h15.54v44.56c0,3.39.69,6.37,2.06,8.94,1.38,2.57,3.3,4.56,5.78,5.98,2.48,1.42,5.32,2.13,8.53,2.13s6.19-.73,8.66-2.2c2.48-1.47,4.4-3.53,5.78-6.19,1.38-2.66,2.06-5.78,2.06-9.35v-43.87h15.54v74.41h-14.85v-14.58l1.79,1.93c-1.74,4.68-4.65,8.23-8.73,10.66-4.08,2.43-8.78,3.64-14.1,3.64Z"/>
      <path class="cls-2" d="M728.65,275.81c-7.79,0-13.85-2.2-18.16-6.6-4.31-4.4-6.46-10.59-6.46-18.57v-35.9h-13.2v-14.17h2.06c3.48,0,6.21-1.01,8.18-3.03,1.97-2.02,2.96-4.77,2.96-8.25v-5.78h15.54v17.05h16.92v14.17h-16.92v35.21c0,2.57.41,4.75,1.24,6.53.83,1.79,2.15,3.16,3.99,4.13,1.83.96,4.22,1.44,7.15,1.44.73,0,1.56-.04,2.48-.14.92-.09,1.79-.18,2.61-.27v13.34c-1.28.18-2.71.37-4.26.55-1.56.18-2.94.28-4.13.28Z"/>
      <path class="cls-2" d="M786.69,276.63c-7.24,0-13.8-1.7-19.67-5.09-5.87-3.39-10.54-8.02-14.03-13.89-3.49-5.87-5.23-12.52-5.23-19.94s1.72-14.19,5.16-20.01c3.44-5.82,8.09-10.41,13.96-13.75,5.87-3.35,12.47-5.02,19.8-5.02s13.91,1.67,19.74,5.02c5.82,3.35,10.45,7.93,13.89,13.75,3.44,5.82,5.16,12.49,5.16,20.01s-1.74,14.21-5.23,20.08c-3.49,5.87-8.16,10.48-14.03,13.82-5.87,3.35-12.38,5.02-19.53,5.02ZM786.69,262.19c4.31,0,8.16-1.05,11.55-3.16,3.39-2.11,6.07-5.02,8.05-8.73,1.97-3.71,2.96-7.91,2.96-12.58s-.99-8.82-2.96-12.45c-1.97-3.62-4.65-6.51-8.05-8.66-3.39-2.15-7.24-3.23-11.55-3.23s-8.18,1.08-11.62,3.23c-3.44,2.16-6.14,5.04-8.12,8.66-1.97,3.62-2.96,7.77-2.96,12.45s.98,8.87,2.96,12.58c1.97,3.71,4.68,6.62,8.12,8.73,3.44,2.11,7.31,3.16,11.62,3.16Z"/>
      <path class="cls-2" d="M840.6,274.98v-74.41h14.85v15.13l-1.38-2.2c1.65-4.95,4.31-8.5,7.98-10.66,3.67-2.15,8.07-3.23,13.2-3.23h4.54v14.17h-6.46c-5.14,0-9.28,1.6-12.45,4.81-3.16,3.21-4.75,7.7-4.75,13.48v42.91h-15.54Z"/>
      <path class="cls-2" d="M917.9,276.63c-7.7,0-14.4-1.88-20.08-5.64-5.69-3.76-9.67-8.8-11.96-15.13l11.96-5.64c2.02,4.22,4.79,7.56,8.32,10.04,3.53,2.48,7.45,3.71,11.76,3.71,3.67,0,6.65-.83,8.94-2.48,2.29-1.65,3.44-3.9,3.44-6.74,0-1.74-.5-3.18-1.51-4.33-1.01-1.15-2.27-2.08-3.78-2.82-1.51-.73-3.05-1.33-4.61-1.79l-11.69-3.3c-6.51-1.83-11.35-4.58-14.51-8.25-3.16-3.67-4.75-7.98-4.75-12.93,0-4.49,1.15-8.44,3.44-11.83,2.29-3.39,5.45-6,9.49-7.84,4.03-1.83,8.62-2.75,13.75-2.75,6.78,0,12.84,1.67,18.16,5.02,5.32,3.35,9.08,8,11.28,13.96l-12.1,5.78c-1.47-3.67-3.76-6.55-6.88-8.66-3.12-2.11-6.65-3.16-10.59-3.16-3.39,0-6.1.8-8.11,2.41-2.02,1.6-3.03,3.69-3.03,6.26,0,1.74.46,3.19,1.38,4.33.92,1.15,2.11,2.06,3.58,2.75,1.47.69,2.98,1.26,4.54,1.72l12.1,3.58c6.14,1.74,10.87,4.47,14.17,8.18,3.3,3.71,4.95,8.14,4.95,13.27,0,4.4-1.17,8.28-3.51,11.62-2.34,3.35-5.57,5.96-9.7,7.84-4.13,1.88-8.94,2.82-14.44,2.82Z"/>
    </g>
    <g>
      <path class="cls-6" d="M452.17,307.21l1.91,7.32c.42,1.61.8,3.1,1.07,4.58h.09c.33-1.46.8-3.01,1.28-4.56l2.35-7.35h2.2l2.23,7.2c.54,1.73.95,3.24,1.28,4.7h.09c.24-1.46.62-2.98,1.1-4.67l2.05-7.23h2.59l-4.64,14.41h-2.38l-2.2-6.88c-.51-1.61-.92-3.04-1.28-4.73h-.06c-.36,1.73-.8,3.22-1.31,4.76l-2.32,6.85h-2.38l-4.35-14.41h2.68Z"/>
      <path class="cls-6" d="M473.03,300.49h2.62v8.99h.06c.42-.74,1.07-1.4,1.88-1.85.77-.45,1.7-.74,2.68-.74,1.94,0,5.03,1.19,5.03,6.16v8.57h-2.62v-8.28c0-2.32-.86-4.29-3.33-4.29-1.7,0-3.04,1.19-3.51,2.62-.15.36-.18.74-.18,1.25v8.69h-2.62v-21.14Z"/>
      <path class="cls-6" d="M491.01,314.89c.06,3.54,2.32,5,4.94,5,1.88,0,3.01-.33,3.99-.74l.45,1.88c-.92.42-2.5.89-4.79.89-4.44,0-7.09-2.92-7.09-7.26s2.56-7.77,6.76-7.77c4.7,0,5.95,4.14,5.95,6.79,0,.54-.06.95-.09,1.22h-10.12ZM498.69,313.02c.03-1.67-.68-4.26-3.63-4.26-2.65,0-3.81,2.44-4.02,4.26h7.65Z"/>
      <path class="cls-6" d="M504.46,311.71c0-1.7-.03-3.16-.12-4.5h2.29l.09,2.83h.12c.66-1.94,2.23-3.16,3.99-3.16.3,0,.51.03.74.09v2.47c-.27-.06-.54-.09-.89-.09-1.85,0-3.16,1.4-3.51,3.36-.06.36-.12.77-.12,1.22v7.68h-2.59v-9.91Z"/>
      <path class="cls-6" d="M515.35,314.89c.06,3.54,2.32,5,4.94,5,1.88,0,3.01-.33,3.99-.74l.45,1.88c-.92.42-2.5.89-4.79.89-4.44,0-7.09-2.92-7.09-7.26s2.56-7.77,6.76-7.77c4.7,0,5.95,4.14,5.95,6.79,0,.54-.06.95-.09,1.22h-10.12ZM523.03,313.02c.03-1.67-.68-4.26-3.63-4.26-2.65,0-3.81,2.44-4.02,4.26h7.65Z"/>
      <path class="cls-6" d="M535.12,300.49h2.62v21.14h-2.62v-21.14Z"/>
      <path class="cls-6" d="M543.6,314.89c.06,3.54,2.32,5,4.94,5,1.88,0,3.01-.33,3.99-.74l.45,1.88c-.92.42-2.5.89-4.79.89-4.44,0-7.09-2.92-7.09-7.26s2.56-7.77,6.76-7.77c4.7,0,5.95,4.14,5.95,6.79,0,.54-.06.95-.09,1.22h-10.12ZM551.28,313.02c.03-1.67-.68-4.26-3.63-4.26-2.65,0-3.81,2.44-4.02,4.26h7.65Z"/>
      <path class="cls-6" d="M565.03,321.62l-.21-1.82h-.09c-.8,1.13-2.35,2.14-4.41,2.14-2.92,0-4.41-2.05-4.41-4.14,0-3.48,3.1-5.39,8.66-5.36v-.3c0-1.19-.33-3.33-3.27-3.33-1.34,0-2.74.42-3.75,1.07l-.6-1.73c1.19-.77,2.92-1.28,4.73-1.28,4.41,0,5.48,3.01,5.48,5.89v5.39c0,1.25.06,2.47.24,3.45h-2.38ZM564.64,314.27c-2.86-.06-6.1.45-6.1,3.24,0,1.7,1.13,2.5,2.47,2.5,1.88,0,3.07-1.19,3.48-2.41.09-.27.15-.57.15-.83v-2.5Z"/>
      <path class="cls-6" d="M571.4,311.71c0-1.7-.03-3.16-.12-4.5h2.29l.09,2.83h.12c.66-1.94,2.23-3.16,3.99-3.16.3,0,.51.03.74.09v2.47c-.27-.06-.54-.09-.89-.09-1.85,0-3.16,1.4-3.51,3.36-.06.36-.12.77-.12,1.22v7.68h-2.59v-9.91Z"/>
      <path class="cls-6" d="M581.25,311.11c0-1.49-.03-2.71-.12-3.9h2.32l.15,2.38h.06c.71-1.37,2.38-2.71,4.76-2.71,2,0,5.09,1.19,5.09,6.13v8.6h-2.62v-8.31c0-2.32-.86-4.26-3.33-4.26-1.73,0-3.07,1.22-3.51,2.68-.12.33-.18.77-.18,1.22v8.66h-2.62v-10.51Z"/>
      <path class="cls-6" d="M600.68,303.17c.03.89-.62,1.61-1.67,1.61-.92,0-1.58-.71-1.58-1.61s.68-1.64,1.64-1.64,1.61.71,1.61,1.64ZM597.77,321.62v-14.41h2.62v14.41h-2.62Z"/>
      <path class="cls-6" d="M604.73,311.11c0-1.49-.03-2.71-.12-3.9h2.32l.15,2.38h.06c.71-1.37,2.38-2.71,4.76-2.71,2,0,5.09,1.19,5.09,6.13v8.6h-2.62v-8.31c0-2.32-.86-4.26-3.33-4.26-1.73,0-3.07,1.22-3.51,2.68-.12.33-.18.77-.18,1.22v8.66h-2.62v-10.51Z"/>
      <path class="cls-6" d="M633.66,307.21c-.06,1.04-.12,2.2-.12,3.96v8.37c0,3.3-.65,5.33-2.05,6.58-1.4,1.31-3.42,1.73-5.24,1.73s-3.63-.42-4.79-1.19l.65-1.99c.95.6,2.44,1.13,4.23,1.13,2.68,0,4.64-1.4,4.64-5.03v-1.61h-.06c-.8,1.34-2.35,2.41-4.58,2.41-3.57,0-6.13-3.04-6.13-7.03,0-4.88,3.19-7.65,6.49-7.65,2.5,0,3.87,1.31,4.5,2.5h.06l.12-2.17h2.29ZM630.95,312.9c0-.45-.03-.83-.15-1.19-.48-1.52-1.76-2.77-3.66-2.77-2.5,0-4.29,2.11-4.29,5.45,0,2.83,1.43,5.18,4.26,5.18,1.61,0,3.07-1.01,3.63-2.68.15-.45.21-.95.21-1.4v-2.59Z"/>
      <path class="cls-6" d="M644.08,321.62c.06-.98.12-2.44.12-3.72v-17.42h2.59v9.05h.06c.92-1.61,2.59-2.65,4.91-2.65,3.57,0,6.1,2.98,6.07,7.35,0,5.15-3.25,7.71-6.46,7.71-2.08,0-3.75-.8-4.82-2.71h-.09l-.12,2.38h-2.26ZM646.79,315.85c0,.33.06.65.12.95.51,1.82,2.02,3.07,3.93,3.07,2.74,0,4.38-2.23,4.38-5.54,0-2.89-1.49-5.36-4.29-5.36-1.79,0-3.45,1.22-3.99,3.22-.06.3-.15.65-.15,1.07v2.59Z"/>
      <path class="cls-6" d="M662.59,314.89c.06,3.54,2.32,5,4.94,5,1.88,0,3.01-.33,3.99-.74l.45,1.88c-.92.42-2.5.89-4.79.89-4.44,0-7.09-2.92-7.09-7.26s2.56-7.77,6.76-7.77c4.7,0,5.95,4.14,5.95,6.79,0,.54-.06.95-.09,1.22h-10.12ZM670.27,313.02c.03-1.67-.68-4.26-3.63-4.26-2.65,0-3.81,2.44-4.02,4.26h7.65Z"/>
      <path class="cls-6" d="M686.31,321.09c-.68.36-2.2.83-4.14.83-4.35,0-7.17-2.95-7.17-7.35s3.04-7.65,7.74-7.65c1.55,0,2.92.39,3.63.74l-.59,2.02c-.62-.36-1.61-.69-3.04-.69-3.3,0-5.09,2.44-5.09,5.45,0,3.33,2.14,5.39,5,5.39,1.49,0,2.47-.39,3.21-.71l.45,1.96Z"/>
      <path class="cls-6" d="M702.24,314.3c0,5.33-3.69,7.65-7.17,7.65-3.9,0-6.91-2.86-6.91-7.41,0-4.82,3.16-7.65,7.15-7.65s6.94,3.01,6.94,7.41ZM690.81,314.45c0,3.16,1.82,5.54,4.38,5.54s4.38-2.35,4.38-5.6c0-2.44-1.22-5.54-4.32-5.54s-4.44,2.86-4.44,5.6Z"/>
      <path class="cls-6" d="M705.54,311.11c0-1.49-.03-2.71-.12-3.9h2.29l.12,2.32h.09c.8-1.37,2.14-2.65,4.53-2.65,1.96,0,3.45,1.19,4.08,2.89h.06c.45-.8,1.01-1.43,1.61-1.88.86-.65,1.82-1.01,3.19-1.01,1.91,0,4.73,1.25,4.73,6.25v8.48h-2.56v-8.16c0-2.77-1.01-4.44-3.12-4.44-1.49,0-2.65,1.1-3.1,2.38-.12.36-.21.83-.21,1.31v8.9h-2.56v-8.63c0-2.29-1.01-3.96-3.01-3.96-1.64,0-2.83,1.31-3.25,2.62-.15.39-.21.83-.21,1.28v8.69h-2.56v-10.51Z"/>
      <path class="cls-6" d="M731.82,314.89c.06,3.54,2.32,5,4.94,5,1.88,0,3.01-.33,3.99-.74l.45,1.88c-.92.42-2.5.89-4.79.89-4.44,0-7.09-2.92-7.09-7.26s2.56-7.77,6.76-7.77c4.7,0,5.95,4.14,5.95,6.79,0,.54-.06.95-.09,1.22h-10.12ZM739.5,313.02c.03-1.67-.68-4.26-3.63-4.26-2.65,0-3.81,2.44-4.02,4.26h7.65Z"/>
      <path class="cls-6" d="M744.91,318.94c.77.51,2.14,1.04,3.45,1.04,1.91,0,2.8-.95,2.8-2.14,0-1.25-.74-1.94-2.68-2.65-2.59-.92-3.81-2.35-3.81-4.08,0-2.32,1.88-4.23,4.97-4.23,1.46,0,2.74.42,3.54.89l-.65,1.91c-.57-.36-1.61-.83-2.95-.83-1.55,0-2.41.89-2.41,1.96,0,1.19.86,1.73,2.74,2.44,2.5.95,3.78,2.2,3.78,4.35,0,2.53-1.96,4.32-5.39,4.32-1.58,0-3.04-.39-4.05-.98l.66-1.99Z"/>
      <path class="cls-6" d="M773.64,321.09c-.68.36-2.2.83-4.14.83-4.35,0-7.17-2.95-7.17-7.35s3.04-7.65,7.74-7.65c1.55,0,2.92.39,3.63.74l-.59,2.02c-.62-.36-1.61-.69-3.04-.69-3.3,0-5.09,2.44-5.09,5.45,0,3.33,2.14,5.39,5,5.39,1.49,0,2.47-.39,3.21-.71l.45,1.96Z"/>
      <path class="cls-6" d="M784.68,321.62l-.21-1.82h-.09c-.8,1.13-2.35,2.14-4.41,2.14-2.92,0-4.41-2.05-4.41-4.14,0-3.48,3.1-5.39,8.66-5.36v-.3c0-1.19-.33-3.33-3.27-3.33-1.34,0-2.74.42-3.75,1.07l-.6-1.73c1.19-.77,2.92-1.28,4.73-1.28,4.41,0,5.48,3.01,5.48,5.89v5.39c0,1.25.06,2.47.24,3.45h-2.38ZM784.29,314.27c-2.86-.06-6.1.45-6.1,3.24,0,1.7,1.13,2.5,2.47,2.5,1.88,0,3.07-1.19,3.48-2.41.09-.27.15-.57.15-.83v-2.5Z"/>
      <path class="cls-6" d="M791.05,311.92c0-1.85-.06-3.33-.12-4.7h2.35l.12,2.47h.06c1.07-1.76,2.77-2.8,5.12-2.8,3.48,0,6.1,2.95,6.1,7.32,0,5.18-3.16,7.74-6.55,7.74-1.91,0-3.57-.83-4.44-2.26h-.06v7.83h-2.59v-15.6ZM793.64,315.76c0,.39.06.74.12,1.07.48,1.82,2.05,3.07,3.93,3.07,2.77,0,4.38-2.26,4.38-5.57,0-2.89-1.52-5.36-4.29-5.36-1.79,0-3.45,1.28-3.96,3.25-.09.33-.18.71-.18,1.07v2.47Z"/>
      <path class="cls-6" d="M815.96,321.62l-.21-1.82h-.09c-.8,1.13-2.35,2.14-4.41,2.14-2.92,0-4.41-2.05-4.41-4.14,0-3.48,3.1-5.39,8.66-5.36v-.3c0-1.19-.33-3.33-3.27-3.33-1.34,0-2.74.42-3.75,1.07l-.6-1.73c1.19-.77,2.92-1.28,4.73-1.28,4.41,0,5.48,3.01,5.48,5.89v5.39c0,1.25.06,2.47.24,3.45h-2.38ZM815.57,314.27c-2.86-.06-6.1.45-6.1,3.24,0,1.7,1.13,2.5,2.47,2.5,1.88,0,3.07-1.19,3.48-2.41.09-.27.15-.57.15-.83v-2.5Z"/>
      <path class="cls-6" d="M822.21,321.62c.06-.98.12-2.44.12-3.72v-17.42h2.59v9.05h.06c.92-1.61,2.59-2.65,4.91-2.65,3.57,0,6.1,2.98,6.07,7.35,0,5.15-3.25,7.71-6.46,7.71-2.08,0-3.75-.8-4.82-2.71h-.09l-.12,2.38h-2.26ZM824.92,315.85c0,.33.06.65.12.95.51,1.82,2.02,3.07,3.93,3.07,2.74,0,4.38-2.23,4.38-5.54,0-2.89-1.49-5.36-4.29-5.36-1.79,0-3.45,1.22-3.99,3.22-.06.3-.15.65-.15,1.07v2.59Z"/>
      <path class="cls-6" d="M842.18,303.17c.03.89-.62,1.61-1.67,1.61-.92,0-1.58-.71-1.58-1.61s.68-1.64,1.64-1.64,1.61.71,1.61,1.64ZM839.26,321.62v-14.41h2.62v14.41h-2.62Z"/>
      <path class="cls-6" d="M846.23,300.49h2.62v21.14h-2.62v-21.14Z"/>
      <path class="cls-6" d="M856.17,303.17c.03.89-.62,1.61-1.67,1.61-.92,0-1.58-.71-1.58-1.61s.68-1.64,1.64-1.64,1.61.71,1.61,1.64ZM853.25,321.62v-14.41h2.62v14.41h-2.62Z"/>
      <path class="cls-6" d="M863.37,303.08v4.14h3.75v1.99h-3.75v7.77c0,1.79.51,2.8,1.96,2.8.68,0,1.19-.09,1.52-.18l.12,1.96c-.51.21-1.31.36-2.32.36-1.22,0-2.2-.39-2.83-1.1-.75-.77-1.01-2.05-1.01-3.75v-7.86h-2.23v-1.99h2.23v-3.45l2.56-.69Z"/>
      <path class="cls-6" d="M871.29,307.21l3.16,8.51c.33.95.68,2.08.92,2.95h.06c.27-.86.57-1.96.92-3.01l2.86-8.45h2.77l-3.93,10.27c-1.88,4.94-3.16,7.47-4.94,9.02-1.28,1.13-2.56,1.58-3.21,1.7l-.66-2.2c.66-.21,1.52-.62,2.29-1.28.71-.57,1.61-1.58,2.2-2.92.12-.27.21-.48.21-.63s-.06-.36-.18-.68l-5.33-13.28h2.86Z"/>
    </g>
  </g>
</svg>