<svg xmlns="http://www.w3.org/2000/svg" xmlns:xlink="http://www.w3.org/1999/xlink" width="192" zoomAndPan="magnify" viewBox="0 0 144 36.750001" height="49" preserveAspectRatio="xMidYMid meet" version="1.0"><defs><g/><clipPath id="0d4b2ab772"><path d="M 39.308594 0 L 130.9375 0 L 130.9375 16.386719 L 39.308594 16.386719 Z M 39.308594 0 " clip-rule="nonzero"/></clipPath><clipPath id="9f373fb1be"><path d="M 6 9 L 21 9 L 21 29.636719 L 6 29.636719 Z M 6 9 " clip-rule="nonzero"/></clipPath><clipPath id="f48acdc7a6"><path d="M 18 2.074219 L 26 2.074219 L 26 9 L 18 9 Z M 18 2.074219 " clip-rule="nonzero"/></clipPath><clipPath id="40eef1f35e"><path d="M 18 9 L 31.027344 9 L 31.027344 28 L 18 28 Z M 18 9 " clip-rule="nonzero"/></clipPath><clipPath id="6f8a8c705e"><path d="M 0.488281 4 L 14 4 L 14 22 L 0.488281 22 Z M 0.488281 4 " clip-rule="nonzero"/></clipPath><clipPath id="360777de7d"><path d="M 0.105469 0.453125 L 8 0.453125 L 8 9 L 0.105469 9 Z M 0.105469 0.453125 " clip-rule="nonzero"/></clipPath><clipPath id="c1fe7492d7"><path d="M 12 0.453125 L 20 0.453125 L 20 9 L 12 9 Z M 12 0.453125 " clip-rule="nonzero"/></clipPath><clipPath id="c2ebfd221e"><path d="M 24 0.453125 L 31 0.453125 L 31 8 L 24 8 Z M 24 0.453125 " clip-rule="nonzero"/></clipPath><clipPath id="0d8a08226d"><path d="M 34 0.453125 L 41 0.453125 L 41 8 L 34 8 Z M 34 0.453125 " clip-rule="nonzero"/></clipPath><clipPath id="812ae69770"><path d="M 44 0.453125 L 52 0.453125 L 52 9 L 44 9 Z M 44 0.453125 " clip-rule="nonzero"/></clipPath><clipPath id="44c5202115"><path d="M 56 0.453125 L 63 0.453125 L 63 8 L 56 8 Z M 56 0.453125 " clip-rule="nonzero"/></clipPath><clipPath id="4c500dad1c"><path d="M 66 0.453125 L 73 0.453125 L 73 8 L 66 8 Z M 66 0.453125 " clip-rule="nonzero"/></clipPath><clipPath id="776f080340"><path d="M 76 0.453125 L 83 0.453125 L 83 8 L 76 8 Z M 76 0.453125 " clip-rule="nonzero"/></clipPath><clipPath id="2064d64ab7"><path d="M 86 0.453125 L 92 0.453125 L 92 8 L 86 8 Z M 86 0.453125 " clip-rule="nonzero"/></clipPath><clipPath id="99c305ba29"><rect x="0" width="96" y="0" height="11"/></clipPath></defs><g clip-path="url(#0d4b2ab772)"><path fill="#fbfaff" d="M 74.117188 13.75 C 74.117188 14.40625 73.761719 14.800781 73.242188 14.800781 C 72.761719 14.800781 72.394531 14.40625 72.394531 13.726562 L 72.394531 6.996094 L 74.925781 6.996094 L 74.925781 4.503906 L 72.394531 4.503906 L 72.394531 1.683594 L 69.636719 1.683594 L 69.273438 4.503906 L 67.539062 4.503906 L 67.539062 6.996094 L 69.105469 6.996094 L 69.105469 13.359375 C 69.105469 15.066406 70.335938 16.140625 72.195312 16.140625 C 73.761719 16.140625 74.863281 15.203125 74.863281 13.761719 L 74.863281 11.753906 L 74.117188 11.753906 L 74.117188 13.761719 Z M 59 0.269531 C 59.835938 0.269531 60.519531 0.949219 60.519531 1.785156 C 60.519531 2.621094 59.835938 3.304688 59 3.304688 C 58.167969 3.304688 57.484375 2.621094 57.484375 1.785156 C 57.484375 0.949219 58.167969 0.269531 59 0.269531 Z M 65.769531 16.152344 C 64.65625 16.152344 63.796875 15.851562 63.1875 15.230469 C 62.582031 14.625 62.277344 13.75 62.277344 12.636719 L 62.277344 1.710938 L 64.351562 1.710938 L 64.351562 12.460938 C 64.351562 13.082031 64.503906 13.5625 64.792969 13.890625 C 65.085938 14.21875 65.527344 14.382812 66.121094 14.382812 C 66.476562 14.382812 66.816406 14.308594 67.148438 14.167969 L 67.25 15.875 C 66.765625 16.050781 66.273438 16.140625 65.753906 16.140625 Z M 57.964844 4.453125 L 60.039062 4.453125 L 60.039062 15.636719 L 57.964844 15.636719 Z M 55.019531 16.152344 C 53.90625 16.152344 53.042969 15.851562 52.4375 15.230469 C 51.832031 14.625 51.527344 13.75 51.527344 12.636719 L 51.527344 1.710938 L 53.601562 1.710938 L 53.601562 12.460938 C 53.601562 13.082031 53.753906 13.5625 54.042969 13.890625 C 54.335938 14.21875 54.777344 14.382812 55.371094 14.382812 C 55.738281 14.382812 56.066406 14.308594 56.394531 14.167969 L 56.496094 15.875 C 56.015625 16.050781 55.523438 16.140625 55.003906 16.140625 Z M 45.367188 16.179688 C 44.203125 16.179688 43.152344 15.925781 42.242188 15.421875 C 41.332031 14.914062 40.613281 14.21875 40.09375 13.332031 C 39.574219 12.449219 39.308594 11.4375 39.308594 10.308594 C 39.308594 9.183594 39.574219 8.183594 40.09375 7.289062 C 40.613281 6.402344 41.332031 5.707031 42.242188 5.214844 C 43.152344 4.71875 44.203125 4.46875 45.367188 4.46875 C 46.40625 4.46875 47.328125 4.683594 48.148438 5.097656 C 48.960938 5.515625 49.589844 6.125 50.046875 6.921875 L 48.464844 7.933594 C 48.097656 7.386719 47.65625 6.972656 47.125 6.691406 C 46.59375 6.414062 46 6.289062 45.355469 6.289062 C 44.609375 6.289062 43.925781 6.453125 43.332031 6.78125 C 42.738281 7.109375 42.269531 7.589844 41.925781 8.199219 C 41.585938 8.816406 41.421875 9.511719 41.421875 10.308594 C 41.421875 11.121094 41.585938 11.828125 41.925781 12.449219 C 42.269531 13.066406 42.738281 13.535156 43.332031 13.863281 C 43.925781 14.191406 44.609375 14.359375 45.355469 14.359375 C 46 14.359375 46.59375 14.21875 47.125 13.941406 C 47.65625 13.660156 48.113281 13.257812 48.464844 12.699219 L 50.046875 13.699219 C 49.605469 14.496094 48.972656 15.105469 48.148438 15.535156 C 47.328125 15.964844 46.40625 16.179688 45.367188 16.179688 Z M 81.96875 13.246094 C 80.679688 13.246094 79.894531 12.285156 79.894531 10.929688 L 79.894531 4.503906 L 76.621094 4.503906 L 76.621094 11.5 C 76.621094 14.191406 78.277344 16.128906 80.730469 16.128906 C 82.300781 16.128906 83.664062 15.117188 84.308594 13.546875 L 84.308594 15.6875 L 87.585938 15.6875 L 87.585938 4.492188 L 84.308594 4.492188 L 84.308594 10.789062 C 84.308594 12.207031 83.261719 13.230469 81.96875 13.230469 Z M 95.859375 13.75 C 95.859375 14.40625 95.503906 14.800781 94.984375 14.800781 C 94.503906 14.800781 94.136719 14.40625 94.136719 13.726562 L 94.136719 6.996094 L 96.667969 6.996094 L 96.667969 4.503906 L 94.136719 4.503906 L 94.136719 1.683594 L 91.378906 1.683594 L 91.011719 4.503906 L 89.292969 4.503906 L 89.292969 6.996094 L 90.863281 6.996094 L 90.863281 13.359375 C 90.863281 15.066406 92.089844 16.140625 93.949219 16.140625 C 95.515625 16.140625 96.617188 15.203125 96.617188 13.761719 L 96.617188 11.753906 L 95.871094 11.753906 L 95.871094 13.761719 Z M 110.046875 10.109375 C 110.046875 6.527344 107.519531 4.074219 103.824219 4.074219 C 100.15625 4.074219 97.617188 6.527344 97.617188 10.109375 C 97.617188 13.675781 100.144531 16.140625 103.824219 16.140625 C 107.519531 16.140625 110.046875 13.675781 110.046875 10.109375 Z M 106.746094 10.109375 C 106.746094 11.941406 105.546875 13.257812 103.8125 13.257812 C 102.105469 13.257812 100.902344 11.941406 100.902344 10.109375 C 100.902344 8.273438 102.105469 6.957031 103.8125 6.957031 C 105.535156 6.957031 106.746094 8.273438 106.746094 10.109375 Z M 118.117188 4.101562 C 116.828125 4.101562 115.753906 5.125 115.171875 6.742188 L 115.171875 4.515625 L 111.933594 4.515625 L 111.933594 15.710938 L 115.210938 15.710938 L 115.210938 9.765625 C 115.210938 8.085938 116.144531 6.90625 117.574219 6.90625 C 118.054688 6.90625 118.800781 7.035156 119.40625 7.300781 L 119.40625 4.390625 C 118.976562 4.214844 118.511719 4.113281 118.117188 4.113281 Z M 125.429688 16.191406 C 128.527344 16.191406 130.691406 14.507812 130.691406 12.167969 C 130.691406 9.550781 127.832031 9.082031 125.554688 8.78125 C 124.289062 8.578125 123.304688 8.363281 123.304688 7.617188 C 123.304688 6.871094 124.113281 6.351562 125.136719 6.351562 C 126.453125 6.351562 127.414062 6.984375 127.425781 7.90625 L 130.3125 7.90625 C 130.285156 5.65625 128.121094 4.035156 125.136719 4.035156 C 122.40625 4.035156 120.355469 5.605469 120.332031 7.792969 C 120.332031 10.523438 122.40625 10.917969 124.921875 11.222656 C 126.25 11.347656 127.527344 11.613281 127.539062 12.550781 C 127.539062 13.296875 126.667969 13.863281 125.464844 13.863281 C 124.050781 13.863281 123 13.082031 123 11.96875 L 120.230469 11.96875 C 120.230469 14.421875 122.394531 16.191406 125.429688 16.191406 Z M 125.429688 16.191406 " fill-opacity="1" fill-rule="nonzero"/></g><g clip-path="url(#9f373fb1be)"><path fill="#fbfaff" d="M 19.246094 9.988281 C 20.730469 10.847656 21.246094 12.761719 20.386719 14.25 L 12.53125 27.859375 C 11.671875 29.34375 9.753906 29.859375 8.269531 29 C 6.78125 28.140625 6.269531 26.226562 7.128906 24.738281 L 14.984375 11.128906 C 15.839844 9.644531 17.757812 9.128906 19.246094 9.988281 Z M 19.246094 9.988281 " fill-opacity="1" fill-rule="evenodd"/></g><g clip-path="url(#f48acdc7a6)"><path fill="#fbfaff" d="M 23.570312 2.496094 C 25.070312 3.359375 25.582031 5.273438 24.71875 6.773438 C 23.851562 8.269531 21.9375 8.78125 20.441406 7.917969 C 18.945312 7.050781 18.429688 5.140625 19.296875 3.640625 C 20.160156 2.144531 22.074219 1.628906 23.570312 2.496094 Z M 23.570312 2.496094 " fill-opacity="1" fill-rule="evenodd"/></g><g clip-path="url(#40eef1f35e)"><path fill="#fbfaff" d="M 20.113281 27.054688 C 18.625 26.195312 18.117188 24.273438 18.972656 22.792969 L 25.535156 11.421875 C 26.390625 9.941406 28.316406 9.425781 29.796875 10.28125 C 31.28125 11.136719 31.796875 13.054688 30.9375 14.542969 L 24.375 25.914062 C 23.519531 27.398438 21.601562 27.914062 20.113281 27.054688 Z M 20.113281 27.054688 " fill-opacity="1" fill-rule="evenodd"/></g><g clip-path="url(#6f8a8c705e)"><path fill="#fbfaff" d="M 2.042969 21.207031 L 2.042969 21.203125 C 0.554688 20.347656 0.046875 18.425781 0.902344 16.941406 L 7.464844 5.574219 C 8.320312 4.09375 10.246094 3.578125 11.726562 4.433594 C 13.207031 5.289062 13.726562 7.207031 12.867188 8.695312 L 6.304688 20.0625 C 5.445312 21.550781 3.53125 22.0625 2.042969 21.207031 Z M 2.042969 21.207031 " fill-opacity="1" fill-rule="evenodd"/></g><g transform="matrix(1, 0, 0, 1, 39, 21)"><g clip-path="url(#99c305ba29)"><g clip-path="url(#360777de7d)"><g fill="#fbfaff" fill-opacity="1"><g transform="translate(0.308878, 7.836011)"><g><path d="M 6.59375 -2.28125 L 7.375 -2.140625 C 7.257812 -1.679688 7.046875 -1.269531 6.734375 -0.90625 C 6.421875 -0.550781 6.039062 -0.269531 5.59375 -0.0625 C 5.144531 0.144531 4.660156 0.25 4.140625 0.25 C 3.628906 0.25 3.15625 0.160156 2.71875 -0.015625 C 2.289062 -0.203125 1.914062 -0.457031 1.59375 -0.78125 C 1.269531 -1.113281 1.019531 -1.503906 0.84375 -1.953125 C 0.675781 -2.398438 0.59375 -2.890625 0.59375 -3.421875 C 0.59375 -3.953125 0.675781 -4.4375 0.84375 -4.875 C 1.019531 -5.320312 1.269531 -5.710938 1.59375 -6.046875 C 1.914062 -6.378906 2.289062 -6.632812 2.71875 -6.8125 C 3.15625 -6.988281 3.628906 -7.078125 4.140625 -7.078125 C 4.660156 -7.078125 5.144531 -6.96875 5.59375 -6.75 C 6.039062 -6.539062 6.421875 -6.25 6.734375 -5.875 C 7.046875 -5.5 7.257812 -5.070312 7.375 -4.59375 L 6.578125 -4.5 C 6.492188 -4.851562 6.332031 -5.171875 6.09375 -5.453125 C 5.863281 -5.734375 5.578125 -5.953125 5.234375 -6.109375 C 4.890625 -6.273438 4.523438 -6.359375 4.140625 -6.359375 C 3.609375 -6.359375 3.132812 -6.234375 2.71875 -5.984375 C 2.3125 -5.734375 1.988281 -5.382812 1.75 -4.9375 C 1.507812 -4.5 1.390625 -3.992188 1.390625 -3.421875 C 1.398438 -2.847656 1.519531 -2.335938 1.75 -1.890625 C 1.988281 -1.453125 2.3125 -1.101562 2.71875 -0.84375 C 3.132812 -0.59375 3.609375 -0.46875 4.140625 -0.46875 C 4.523438 -0.46875 4.882812 -0.546875 5.21875 -0.703125 C 5.5625 -0.859375 5.851562 -1.070312 6.09375 -1.34375 C 6.332031 -1.625 6.5 -1.9375 6.59375 -2.28125 Z M 6.59375 -2.28125 "/></g></g></g></g><g clip-path="url(#c1fe7492d7)"><g fill="#fbfaff" fill-opacity="1"><g transform="translate(11.660322, 7.836011)"><g><path d="M 0.59375 -3.421875 C 0.59375 -3.953125 0.679688 -4.441406 0.859375 -4.890625 C 1.046875 -5.335938 1.300781 -5.722656 1.625 -6.046875 C 1.945312 -6.378906 2.332031 -6.632812 2.78125 -6.8125 C 3.238281 -6.988281 3.734375 -7.078125 4.265625 -7.078125 C 4.804688 -7.078125 5.300781 -6.988281 5.75 -6.8125 C 6.195312 -6.632812 6.582031 -6.378906 6.90625 -6.046875 C 7.238281 -5.722656 7.492188 -5.335938 7.671875 -4.890625 C 7.859375 -4.441406 7.953125 -3.953125 7.953125 -3.421875 C 7.953125 -2.878906 7.859375 -2.382812 7.671875 -1.9375 C 7.492188 -1.488281 7.238281 -1.101562 6.90625 -0.78125 C 6.582031 -0.457031 6.195312 -0.203125 5.75 -0.015625 C 5.300781 0.160156 4.804688 0.25 4.265625 0.25 C 3.734375 0.25 3.238281 0.160156 2.78125 -0.015625 C 2.332031 -0.203125 1.945312 -0.457031 1.625 -0.78125 C 1.300781 -1.101562 1.046875 -1.488281 0.859375 -1.9375 C 0.679688 -2.382812 0.59375 -2.878906 0.59375 -3.421875 Z M 1.390625 -3.421875 C 1.390625 -2.847656 1.515625 -2.335938 1.765625 -1.890625 C 2.015625 -1.453125 2.351562 -1.109375 2.78125 -0.859375 C 3.21875 -0.609375 3.710938 -0.476562 4.265625 -0.46875 C 4.828125 -0.46875 5.320312 -0.59375 5.75 -0.84375 C 6.1875 -1.101562 6.523438 -1.453125 6.765625 -1.890625 C 7.015625 -2.335938 7.140625 -2.847656 7.140625 -3.421875 C 7.140625 -3.992188 7.015625 -4.5 6.765625 -4.9375 C 6.523438 -5.382812 6.1875 -5.734375 5.75 -5.984375 C 5.320312 -6.234375 4.828125 -6.359375 4.265625 -6.359375 C 3.710938 -6.359375 3.21875 -6.234375 2.78125 -5.984375 C 2.351562 -5.734375 2.015625 -5.382812 1.765625 -4.9375 C 1.515625 -4.5 1.390625 -3.992188 1.390625 -3.421875 Z M 1.390625 -3.421875 "/></g></g></g></g><g clip-path="url(#c2ebfd221e)"><g fill="#fbfaff" fill-opacity="1"><g transform="translate(23.584096, 7.836011)"><g><path d="M 5.609375 -4.6875 C 5.609375 -5.132812 5.445312 -5.484375 5.125 -5.734375 C 4.800781 -5.992188 4.382812 -6.125 3.875 -6.125 L 1.734375 -6.125 L 1.734375 -3.296875 L 3.875 -3.296875 C 4.21875 -3.296875 4.515625 -3.351562 4.765625 -3.46875 C 5.023438 -3.59375 5.226562 -3.757812 5.375 -3.96875 C 5.53125 -4.175781 5.609375 -4.414062 5.609375 -4.6875 Z M 4.71875 -2.703125 L 6.46875 0 L 5.53125 0 L 3.90625 -2.578125 L 1.734375 -2.578125 L 1.734375 0 L 0.921875 0 L 0.921875 -6.84375 L 3.9375 -6.84375 C 4.425781 -6.84375 4.851562 -6.75 5.21875 -6.5625 C 5.59375 -6.375 5.882812 -6.117188 6.09375 -5.796875 C 6.300781 -5.472656 6.40625 -5.101562 6.40625 -4.6875 C 6.40625 -4.375 6.332031 -4.078125 6.1875 -3.796875 C 6.050781 -3.523438 5.851562 -3.289062 5.59375 -3.09375 C 5.34375 -2.894531 5.050781 -2.765625 4.71875 -2.703125 Z M 4.71875 -2.703125 "/></g></g></g></g><g clip-path="url(#0d8a08226d)"><g fill="#fbfaff" fill-opacity="1"><g transform="translate(34.052792, 7.836011)"><g><path d="M 3.234375 -6.125 L 1.703125 -6.125 L 1.703125 -2.921875 L 3.234375 -2.921875 C 3.628906 -2.921875 3.976562 -2.988281 4.28125 -3.125 C 4.582031 -3.257812 4.816406 -3.445312 4.984375 -3.6875 C 5.160156 -3.925781 5.242188 -4.203125 5.234375 -4.515625 C 5.234375 -4.828125 5.144531 -5.101562 4.96875 -5.34375 C 4.800781 -5.582031 4.566406 -5.769531 4.265625 -5.90625 C 3.972656 -6.050781 3.628906 -6.125 3.234375 -6.125 Z M 1.703125 -2.1875 L 1.703125 0 L 0.921875 0 L 0.921875 -6.84375 L 3.34375 -6.84375 C 3.875 -6.84375 4.34375 -6.738281 4.75 -6.53125 C 5.15625 -6.332031 5.472656 -6.054688 5.703125 -5.703125 C 5.941406 -5.359375 6.0625 -4.960938 6.0625 -4.515625 C 6.0625 -4.066406 5.941406 -3.664062 5.703125 -3.3125 C 5.472656 -2.96875 5.15625 -2.691406 4.75 -2.484375 C 4.34375 -2.285156 3.875 -2.1875 3.34375 -2.1875 Z M 1.703125 -2.1875 "/></g></g></g></g><g clip-path="url(#812ae69770)"><g fill="#fbfaff" fill-opacity="1"><g transform="translate(43.987968, 7.836011)"><g><path d="M 0.59375 -3.421875 C 0.59375 -3.953125 0.679688 -4.441406 0.859375 -4.890625 C 1.046875 -5.335938 1.300781 -5.722656 1.625 -6.046875 C 1.945312 -6.378906 2.332031 -6.632812 2.78125 -6.8125 C 3.238281 -6.988281 3.734375 -7.078125 4.265625 -7.078125 C 4.804688 -7.078125 5.300781 -6.988281 5.75 -6.8125 C 6.195312 -6.632812 6.582031 -6.378906 6.90625 -6.046875 C 7.238281 -5.722656 7.492188 -5.335938 7.671875 -4.890625 C 7.859375 -4.441406 7.953125 -3.953125 7.953125 -3.421875 C 7.953125 -2.878906 7.859375 -2.382812 7.671875 -1.9375 C 7.492188 -1.488281 7.238281 -1.101562 6.90625 -0.78125 C 6.582031 -0.457031 6.195312 -0.203125 5.75 -0.015625 C 5.300781 0.160156 4.804688 0.25 4.265625 0.25 C 3.734375 0.25 3.238281 0.160156 2.78125 -0.015625 C 2.332031 -0.203125 1.945312 -0.457031 1.625 -0.78125 C 1.300781 -1.101562 1.046875 -1.488281 0.859375 -1.9375 C 0.679688 -2.382812 0.59375 -2.878906 0.59375 -3.421875 Z M 1.390625 -3.421875 C 1.390625 -2.847656 1.515625 -2.335938 1.765625 -1.890625 C 2.015625 -1.453125 2.351562 -1.109375 2.78125 -0.859375 C 3.21875 -0.609375 3.710938 -0.476562 4.265625 -0.46875 C 4.828125 -0.46875 5.320312 -0.59375 5.75 -0.84375 C 6.1875 -1.101562 6.523438 -1.453125 6.765625 -1.890625 C 7.015625 -2.335938 7.140625 -2.847656 7.140625 -3.421875 C 7.140625 -3.992188 7.015625 -4.5 6.765625 -4.9375 C 6.523438 -5.382812 6.1875 -5.734375 5.75 -5.984375 C 5.320312 -6.234375 4.828125 -6.359375 4.265625 -6.359375 C 3.710938 -6.359375 3.21875 -6.234375 2.78125 -5.984375 C 2.351562 -5.734375 2.015625 -5.382812 1.765625 -4.9375 C 1.515625 -4.5 1.390625 -3.992188 1.390625 -3.421875 Z M 1.390625 -3.421875 "/></g></g></g></g><g clip-path="url(#44c5202115)"><g fill="#fbfaff" fill-opacity="1"><g transform="translate(55.911742, 7.836011)"><g><path d="M 5.609375 -4.6875 C 5.609375 -5.132812 5.445312 -5.484375 5.125 -5.734375 C 4.800781 -5.992188 4.382812 -6.125 3.875 -6.125 L 1.734375 -6.125 L 1.734375 -3.296875 L 3.875 -3.296875 C 4.21875 -3.296875 4.515625 -3.351562 4.765625 -3.46875 C 5.023438 -3.59375 5.226562 -3.757812 5.375 -3.96875 C 5.53125 -4.175781 5.609375 -4.414062 5.609375 -4.6875 Z M 4.71875 -2.703125 L 6.46875 0 L 5.53125 0 L 3.90625 -2.578125 L 1.734375 -2.578125 L 1.734375 0 L 0.921875 0 L 0.921875 -6.84375 L 3.9375 -6.84375 C 4.425781 -6.84375 4.851562 -6.75 5.21875 -6.5625 C 5.59375 -6.375 5.882812 -6.117188 6.09375 -5.796875 C 6.300781 -5.472656 6.40625 -5.101562 6.40625 -4.6875 C 6.40625 -4.375 6.332031 -4.078125 6.1875 -3.796875 C 6.050781 -3.523438 5.851562 -3.289062 5.59375 -3.09375 C 5.34375 -2.894531 5.050781 -2.765625 4.71875 -2.703125 Z M 4.71875 -2.703125 "/></g></g></g></g><g clip-path="url(#4c500dad1c)"><g fill="#fbfaff" fill-opacity="1"><g transform="translate(66.380438, 7.836011)"><g><path d="M 4.984375 -2.03125 L 3.421875 -6.125 L 1.859375 -2.03125 Z M 1.671875 -1.390625 L 1.140625 0 L 0.28125 0 L 2.828125 -6.84375 L 4 -6.84375 L 6.546875 0 L 5.6875 0 L 5.171875 -1.390625 Z M 1.671875 -1.390625 "/></g></g></g></g><g clip-path="url(#776f080340)"><g fill="#fbfaff" fill-opacity="1"><g transform="translate(76.596924, 7.836011)"><g><path d="M 2.5 -6.125 L 0.203125 -6.125 L 0.203125 -6.84375 L 5.59375 -6.84375 L 5.59375 -6.125 L 3.296875 -6.125 L 3.296875 0 L 2.5 0 Z M 2.5 -6.125 "/></g></g></g></g><g clip-path="url(#2064d64ab7)"><g fill="#fbfaff" fill-opacity="1"><g transform="translate(85.775456, 7.836011)"><g><path d="M 1.703125 -0.71875 L 5.6875 -0.71875 L 5.6875 0 L 0.921875 0 L 0.921875 -6.84375 L 5.59375 -6.84375 L 5.59375 -6.125 L 1.703125 -6.125 L 1.703125 -3.875 L 5.203125 -3.875 L 5.203125 -3.203125 L 1.703125 -3.203125 Z M 1.703125 -0.71875 "/></g></g></g></g></g></g></svg>