<?xml version="1.0" encoding="UTF-8"?>
<svg version="1.1" xmlns="http://www.w3.org/2000/svg" width="800" height="777">
<path d="M0 0 C1.79156525 0.00273422 1.79156525 0.00273422 3.61932373 0.00552368 C20.75884798 0.0495919 37.50105953 0.4791637 54.4375 3.3125 C56.10594971 3.56990967 56.10594971 3.56990967 57.80810547 3.83251953 C131.30224971 15.20262148 198.34657024 48.3228059 253.1640625 98.26171875 C255.28513649 100.17505869 257.44724725 102.02683052 259.625 103.875 C262.93747656 106.75685461 265.7643941 109.87542364 268.59765625 113.22265625 C270.57511436 115.46881356 272.66711266 117.53910347 274.8125 119.625 C279.77611995 124.53839783 284.08989802 129.85531742 288.4375 135.3125 C289.36170208 136.43619651 290.28755483 137.55853694 291.21484375 138.6796875 C320.10160605 173.82340613 341.56801168 215.08604953 355.4375 258.3125 C355.74284668 259.2617334 356.04819336 260.2109668 356.36279297 261.18896484 C363.91587959 285.01768285 368.81435675 309.46294074 371.4375 334.3125 C371.52482895 335.13491684 371.6121579 335.95733368 371.70213318 336.80467224 C372.36871996 343.54692189 372.61125464 350.22324876 372.640625 356.99609375 C372.64763931 358.08153976 372.65465363 359.16698578 372.66188049 360.2853241 C372.67930463 363.773592 372.68573378 367.26169016 372.6875 370.75 C372.68851212 372.53685211 372.68851212 372.53685211 372.68954468 374.35980225 C372.67376797 391.86958874 372.26234724 408.99640882 369.4375 426.3125 C369.27121094 427.38822266 369.10492187 428.46394531 368.93359375 429.57226562 C362.02011141 473.48568122 347.59294988 516.68598291 325.4375 555.3125 C324.76750977 556.48401611 324.76750977 556.48401611 324.08398438 557.67919922 C311.56271884 579.40503512 297.03524288 600.4608734 279.81640625 618.7578125 C277.90199405 620.81368373 276.06224007 622.89926426 274.23046875 625.02734375 C270.07449916 629.79423919 265.66038361 634.28159554 261.1875 638.75 C260.34558105 639.59111328 259.50366211 640.43222656 258.63623047 641.29882812 C253.61900428 646.26676159 248.58110764 650.9667423 243.00390625 655.30078125 C240.62101096 657.16865198 238.34626344 659.12775291 236.07324219 661.12670898 C183.4746959 707.0402445 113.09770387 733.94645807 44.4375 742.3125 C43.64537109 742.41546387 42.85324219 742.51842773 42.03710938 742.62451172 C-36.07984734 752.44342228 -114.4118173 733.53904982 -183.09667969 696.55834961 C-188.13929859 694.01057889 -190.94354383 693.01208959 -196.60797119 694.18640137 C-197.82189041 694.43055283 -199.03580963 694.67470428 -200.28651428 694.92625427 C-201.62367732 695.21036373 -202.96078803 695.49471954 -204.29785156 695.77929688 C-205.71227507 696.0692513 -207.12697119 696.35787866 -208.54191589 696.64527893 C-211.58618118 697.26631846 -214.62843406 697.8961982 -217.66947174 698.53285217 C-222.48292673 699.53997571 -227.30089047 700.52417803 -232.11981201 701.50476074 C-244.09091841 703.94441204 -256.05583656 706.41394364 -268.01947021 708.88995361 C-277.31325605 710.81307864 -286.6086102 712.72777373 -295.90927672 714.61738062 C-300.69460498 715.59059563 -305.4759609 716.58092657 -310.25500441 717.58452606 C-313.2369387 718.20681343 -316.22185828 718.81369584 -319.20778847 719.41648674 C-320.58570112 719.69787783 -321.96235214 719.98553552 -323.33750725 720.2801075 C-331.05088064 721.92856938 -337.00940974 722.90190008 -344.5625 720.3125 C-347.81585006 717.4658187 -349.10163067 714.81121521 -349.6270256 710.52025604 C-349.4805776 705.50950908 -347.38431928 700.79596873 -345.70947266 696.12597656 C-345.06361592 694.26506696 -344.41777256 692.40415267 -343.77243304 690.54306364 C-343.07894949 688.55144319 -342.37832484 686.56245546 -341.67604446 684.5739212 C-340.2108006 680.41929383 -338.77596272 676.25456998 -337.34701538 672.08734131 C-333.28107437 660.2416495 -329.19258087 648.4042343 -325.03369141 636.59082031 C-322.73465488 630.05955576 -320.47039548 623.51730581 -318.24393499 616.96093345 C-317.06565513 613.49622788 -315.87021817 610.03975501 -314.63118362 606.59626007 C-313.24834751 602.75301373 -311.94162239 598.88782562 -310.63916016 595.01660156 C-310.21969116 593.88895386 -309.80022217 592.76130615 -309.36804199 591.5994873 C-307.83869349 586.88058678 -306.90473126 583.88277588 -308.86847019 579.19478798 C-310.6249446 576.41322813 -312.50080271 573.87251782 -314.5625 571.3125 C-343.79050715 523.5320018 -362.1428798 471.83908264 -369.5625 416.3125 C-369.74039062 415.00273193 -369.74039062 415.00273193 -369.921875 413.66650391 C-381.90527284 320.42068949 -353.47840469 220.84163472 -296.29907227 146.67285156 C-294.08923822 143.8563731 -291.83795404 141.07614236 -289.5625 138.3125 C-289.11165039 137.76400391 -288.66080078 137.21550781 -288.19628906 136.65039062 C-278.93741236 125.43985574 -269.13126142 114.80303265 -258.875 104.5 C-258.1742334 103.79456055 -257.4734668 103.08912109 -256.75146484 102.36230469 C-252.18511342 97.80991764 -247.46979829 93.49423697 -242.5625 89.3125 C-241.74265625 88.61125 -240.9228125 87.91 -240.078125 87.1875 C-220.86243874 71.2848631 -200.54368083 57.32823062 -178.62109375 45.43212891 C-177.21418517 44.66693883 -175.8106721 43.89548112 -174.41015625 43.11865234 C-121.35037527 13.70963929 -60.38276683 -0.19120075 0 0 Z M-211.5625 257.3125 C-223.11180214 272.25375934 -224.87458346 288.08190822 -224.82128906 306.43139648 C-224.82400534 308.01796631 -224.82756982 309.60453486 -224.83190918 311.19110107 C-224.84096051 315.46595235 -224.83751894 319.74070616 -224.83115101 324.01555896 C-224.82605228 328.51111262 -224.83079323 333.0066585 -224.83392334 337.50221252 C-224.83755214 345.04974856 -224.83279287 352.59724533 -224.82324219 360.14477539 C-224.81236369 368.84144917 -224.81588322 377.53802912 -224.826895 386.23470062 C-224.83600364 393.73148248 -224.83723561 401.22823628 -224.83201766 408.7250219 C-224.82891705 413.18931588 -224.82843556 417.65356591 -224.83509064 422.11785698 C-224.84091563 426.3180106 -224.83677408 430.51804458 -224.82530212 434.71818542 C-224.82268269 436.24950017 -224.82337344 437.78082519 -224.82782745 439.3121357 C-224.88179246 459.7692379 -221.66928493 476.03710649 -207.5390625 491.53125 C-190.9329202 507.58179646 -169.50154041 507.76719042 -147.88671875 507.70068359 C-145.64433538 507.7047572 -143.40195403 507.71010348 -141.15957642 507.71661377 C-135.11413704 507.73019924 -129.06885261 507.72502515 -123.0234108 507.71547651 C-116.67014424 507.70783421 -110.31689017 507.71493814 -103.96362305 507.71963501 C-92.61689812 507.72542716 -81.27025121 507.71615602 -69.9235419 507.700857 C-59.66806887 507.68745663 -49.41269776 507.6897856 -39.15722656 507.70361328 C-27.20305875 507.71972416 -15.24895266 507.72561402 -3.29477024 507.71677649 C3.01677837 507.71212074 9.32825702 507.71141701 15.63980103 507.72138596 C21.57598415 507.7301086 27.51197648 507.72393762 33.44813919 507.70670319 C35.61515614 507.70276649 37.7821894 507.70382349 39.94919968 507.71049118 C61.4882782 507.77060977 81.14914653 506.18883779 97.4375 490.3125 C108.9288334 477.02375241 112.6270317 463.49535351 113.0625 446.3125 C113.10117187 445.06082031 113.13984375 443.80914062 113.1796875 442.51953125 C113.27339341 439.4506628 113.3591107 436.38179147 113.4375 433.3125 C116.89235795 434.88288998 117.8691029 435.86202639 119.4375 439.3125 C120.8541747 441.0636573 120.8541747 441.0636573 122.4375 442.3125 C123.0975 442.3125 123.7575 442.3125 124.4375 442.3125 C124.4375 442.9725 124.4375 443.6325 124.4375 444.3125 C125.0975 444.3125 125.7575 444.3125 126.4375 444.3125 C126.8396875 445.2715625 126.8396875 445.2715625 127.25 446.25 C128.32417752 448.64381686 128.32417752 448.64381686 131.4375 449.3125 C131.4375 449.9725 131.4375 450.6325 131.4375 451.3125 C132.0975 451.3125 132.7575 451.3125 133.4375 451.3125 C134.0975 452.6325 134.7575 453.9525 135.4375 455.3125 C136.0975 455.3125 136.7575 455.3125 137.4375 455.3125 C138.0975 456.6325 138.7575 457.9525 139.4375 459.3125 C140.0975 459.3125 140.7575 459.3125 141.4375 459.3125 C141.705625 459.910625 141.97375 460.50875 142.25 461.125 C143.43667406 463.31097854 144.53349113 464.72582594 146.4375 466.3125 C147.0975 466.3125 147.7575 466.3125 148.4375 466.3125 C149.0975 467.6325 149.7575 468.9525 150.4375 470.3125 C151.0975 470.3125 151.7575 470.3125 152.4375 470.3125 C152.8396875 471.2715625 152.8396875 471.2715625 153.25 472.25 C154.32417752 474.64381686 154.32417752 474.64381686 157.4375 475.3125 C158.625 477.375 158.625 477.375 159.4375 479.3125 C160.0975 479.3125 160.7575 479.3125 161.4375 479.3125 C161.7675 480.3025 162.0975 481.2925 162.4375 482.3125 C163.0975 482.3125 163.7575 482.3125 164.4375 482.3125 C164.685 482.9003125 164.9325 483.488125 165.1875 484.09375 C168.66971631 490.27468396 176.20127748 494.32237612 182.70703125 496.65234375 C191.89057491 498.87268549 201.15432094 497.86518064 209.4375 493.3125 C217.6069491 487.57401716 223.50198297 480.2680859 225.4375 470.3125 C225.53751431 467.68774568 225.5853219 465.0893697 225.58467102 462.46458435 C225.59018605 461.27053524 225.59018605 461.27053524 225.5958125 460.05236393 C225.60683575 457.38182658 225.61069091 454.71132817 225.61450195 452.04077148 C225.62076773 450.12701799 225.62741463 448.21326572 225.63441467 446.29951477 C225.65544739 440.01088303 225.66581769 433.72225108 225.67578125 427.43359375 C225.67982938 425.26694285 225.68394632 423.10029207 225.68813133 420.93364143 C225.70718283 410.75200969 225.72141284 400.57038519 225.7297433 390.38873905 C225.73950995 378.64628875 225.76581478 366.90402724 225.80624419 355.16164345 C225.83643801 346.07951113 225.85121536 336.99743283 225.85452431 327.91525131 C225.85687145 322.49397247 225.86578795 317.07289533 225.89098549 311.65167046 C225.91432767 306.54708027 225.91847469 301.44282369 225.90822411 296.33819389 C225.9077301 294.47062061 225.91401047 292.60303055 225.92778015 290.73550797 C226.01776965 277.80074182 225.62938671 266.79472278 216.15234375 256.95703125 C209.20294428 250.29257299 201.23321155 246.16408013 191.4375 246.3125 C174.57165519 248.02010111 164.73906144 259.8422825 153.36672974 271.30810547 C151.77161708 272.91621606 150.17319548 274.52097541 148.57397461 276.125 C145.1922811 279.51798417 141.81461407 282.91495862 138.4375 286.3125 C134.4924311 290.28121622 130.54570424 294.2482557 126.5947876 298.21115112 C125.02060462 299.79181061 123.44946046 301.37544851 121.87841797 302.95922852 C120.9203942 303.92088195 119.96223137 304.88239687 119.00390625 305.84375 C118.16802979 306.68486328 117.33215332 307.52597656 116.47094727 308.39257812 C114.4375 310.3125 114.4375 310.3125 112.4375 311.3125 C112.4689209 310.14231323 112.4689209 310.14231323 112.50097656 308.94848633 C112.58521737 305.34079395 112.63649916 301.73330953 112.6875 298.125 C112.73777344 296.28518555 112.73777344 296.28518555 112.7890625 294.40820312 C112.96486994 277.75044861 107.23123821 264.69099329 95.91015625 252.6328125 C84.17907732 241.62450146 69.51656387 237.15689106 53.76805115 237.17205811 C52.31629166 237.16760142 52.31629166 237.16760142 50.83520371 237.1630547 C47.59512376 237.15438966 44.35508085 237.1528613 41.11499023 237.15136719 C38.79039939 237.1467374 36.4658093 237.14171253 34.14122009 237.13632202 C27.82685459 237.12321009 21.51249972 237.11675522 15.19812274 237.11231136 C11.25045361 237.10937824 7.30278738 237.10527294 3.35511971 237.10080719 C-7.58850885 237.08870029 -18.53213488 237.078318 -29.47577 237.0749321 C-30.52548566 237.07460275 -30.52548566 237.07460275 -31.59640771 237.07426675 C-32.64854978 237.07393933 -32.64854978 237.07393933 -33.72194725 237.0736053 C-35.1431634 237.07316184 -36.56437955 237.07271528 -37.9855957 237.07226562 C-38.69055897 237.0720442 -39.39552225 237.07182277 -40.12184804 237.07159463 C-51.53259954 237.06765062 -62.94328702 237.05020756 -74.35401381 237.0269061 C-86.08718782 237.00314093 -97.82032979 236.99072787 -109.55352825 236.98956418 C-116.13398014 236.98851782 -122.71434173 236.98264604 -129.29477119 236.96474457 C-135.48933426 236.94822067 -141.68373957 236.94612942 -147.87831688 236.95488358 C-150.14495899 236.95565168 -152.41160973 236.95134135 -154.67823029 236.94142532 C-177.42693243 236.84778527 -195.52553409 239.90624178 -211.5625 257.3125 Z " fill="#474967" transform="translate(392.5625,-0.31250000000000006)"/>
<path d="" fill="#000000" transform="translate(0,0)"/>
<path d="" fill="#000000" transform="translate(0,0)"/>
<path d="" fill="#000000" transform="translate(0,0)"/>
<path d="" fill="#000000" transform="translate(0,0)"/>
<path d="" fill="#000000" transform="translate(0,0)"/>
<path d="" fill="#000000" transform="translate(0,0)"/>
<path d="" fill="#000000" transform="translate(0,0)"/>
<path d="" fill="#000000" transform="translate(0,0)"/>
<path d="" fill="#000000" transform="translate(0,0)"/>
<path d="" fill="#000000" transform="translate(0,0)"/>
<path d="" fill="#000000" transform="translate(0,0)"/>
<path d="" fill="#000000" transform="translate(0,0)"/>
<path d="" fill="#000000" transform="translate(0,0)"/>
<path d="" fill="#000000" transform="translate(0,0)"/>
<path d="" fill="#000000" transform="translate(0,0)"/>
<path d="" fill="#000000" transform="translate(0,0)"/>
<path d="" fill="#000000" transform="translate(0,0)"/>
<path d="" fill="#000000" transform="translate(0,0)"/>
<path d="" fill="#000000" transform="translate(0,0)"/>
<path d="" fill="#000000" transform="translate(0,0)"/>
<path d="" fill="#000000" transform="translate(0,0)"/>
<path d="" fill="#000000" transform="translate(0,0)"/>
<path d="" fill="#000000" transform="translate(0,0)"/>
<path d="" fill="#000000" transform="translate(0,0)"/>
<path d="" fill="#000000" transform="translate(0,0)"/>
<path d="" fill="#000000" transform="translate(0,0)"/>
<path d="" fill="#000000" transform="translate(0,0)"/>
<path d="" fill="#000000" transform="translate(0,0)"/>
<path d="" fill="#000000" transform="translate(0,0)"/>
<path d="" fill="#000000" transform="translate(0,0)"/>
<path d="" fill="#000000" transform="translate(0,0)"/>
<path d="" fill="#000000" transform="translate(0,0)"/>
<path d="" fill="#000000" transform="translate(0,0)"/>
<path d="" fill="#000000" transform="translate(0,0)"/>
<path d="" fill="#000000" transform="translate(0,0)"/>
<path d="" fill="#000000" transform="translate(0,0)"/>
<path d="" fill="#000000" transform="translate(0,0)"/>
<path d="" fill="#000000" transform="translate(0,0)"/>
<path d="" fill="#000000" transform="translate(0,0)"/>
<path d="" fill="#000000" transform="translate(0,0)"/>
<path d="" fill="#000000" transform="translate(0,0)"/>
<path d="" fill="#000000" transform="translate(0,0)"/>
<path d="" fill="#000000" transform="translate(0,0)"/>
<path d="" fill="#000000" transform="translate(0,0)"/>
</svg>
